<svg width="14" height="14" viewBox="0 0 14 14" fill="none" xmlns="http://www.w3.org/2000/svg">
<path d="M7.00036 14C8.38483 14 9.73821 13.5895 10.8894 12.8203C12.0405 12.0511 12.9377 10.9579 13.4675 9.67879C13.9973 8.3997 14.136 6.99224 13.8659 5.63437C13.5958 4.2765 12.9291 3.02922 11.9501 2.05026C10.9711 1.07129 9.72386 0.404603 8.366 0.134506C7.00813 -0.13559 5.60066 0.00303299 4.32158 0.532846C3.0425 1.06266 1.94925 1.95987 1.18008 3.11101C0.410909 4.26215 0.000366211 5.61553 0.000366211 7C0.00269178 8.8558 0.740936 10.6349 2.05319 11.9472C3.36544 13.2594 5.14456 13.9977 7.00036 14ZM7.00036 1.36661C8.11419 1.36661 9.20301 1.69688 10.1291 2.31566C11.0553 2.93444 11.7771 3.81394 12.2034 4.84295C12.6298 5.87197 12.7414 7.00429 12.5242 8.09673C12.307 9.18918 11.7708 10.1927 10.9833 10.9804C10.1958 11.7681 9.19239 12.3046 8.1 12.5221C7.00761 12.7395 5.87526 12.6282 4.84613 12.2022C3.81701 11.7761 2.93732 11.0545 2.3183 10.1285C1.69928 9.20256 1.36872 8.11383 1.36843 7C1.36999 5.5068 1.96385 4.07519 3.0197 3.01934C4.07556 1.96348 5.50716 1.36962 7.00036 1.36807V1.36661ZM7.63753 10.4304C7.63753 10.5735 7.59509 10.7134 7.51558 10.8324C7.43607 10.9514 7.32307 11.0442 7.19085 11.0989C7.05863 11.1537 6.91314 11.168 6.77278 11.1401C6.63242 11.1122 6.50349 11.0433 6.4023 10.9421C6.3011 10.8409 6.23219 10.712 6.20427 10.5716C6.17635 10.4312 6.19068 10.2857 6.24544 10.1535C6.30021 10.0213 6.39295 9.9083 6.51194 9.82879C6.63094 9.74928 6.77083 9.70684 6.91394 9.70684C7.00909 9.70684 7.1033 9.72561 7.19119 9.76206C7.27907 9.79852 7.3589 9.85195 7.42611 9.91929C7.49332 9.98664 7.54659 10.0666 7.58287 10.1545C7.61915 10.2425 7.63772 10.3367 7.63753 10.4319V10.4304ZM4.65678 4.79117C4.62545 4.70211 4.61204 4.60773 4.61732 4.51346C4.6226 4.4192 4.64646 4.3269 4.68754 4.24189C4.88552 3.82622 5.19667 3.47477 5.58528 3.22787C5.9739 2.98097 6.42424 2.84862 6.88465 2.846H6.8993C7.54175 2.84856 8.15835 3.09934 8.62021 3.54592C9.08207 3.9925 9.35346 4.60031 9.37764 5.24231C9.39404 5.76912 9.24036 6.2872 8.93935 6.71985C8.63835 7.1525 8.20601 7.47671 7.70637 7.64449C7.70637 7.64449 7.6346 7.66939 7.6346 7.71187V8.28604C7.6346 8.47698 7.55875 8.66009 7.42374 8.7951C7.28873 8.93012 7.10561 9.00596 6.91468 9.00596C6.72374 9.00596 6.54063 8.93012 6.40562 8.7951C6.27061 8.66009 6.19476 8.47698 6.19476 8.28604V7.71187C6.19798 7.39363 6.3009 7.0844 6.48903 6.8277C6.67715 6.571 6.94102 6.37973 7.24351 6.28081C7.45172 6.21026 7.63175 6.07465 7.75702 5.89399C7.88229 5.71334 7.94618 5.4972 7.93926 5.27747C7.92517 5.01145 7.81052 4.76073 7.61852 4.57607C7.42652 4.39142 7.17152 4.28662 6.90516 4.28291C6.71299 4.28496 6.52527 4.34098 6.3634 4.44457C6.20154 4.54816 6.07204 4.69516 5.98969 4.8688C5.92859 4.99882 5.82996 5.10757 5.70649 5.18102C5.58303 5.25447 5.44039 5.28926 5.29697 5.2809C5.15356 5.27255 5.01593 5.22144 4.90182 5.13415C4.78772 5.04687 4.70237 4.92741 4.65678 4.79117Z" fill="#004990"/>
</svg>
