<svg width="14" height="14" viewBox="0 0 14 14" fill="none" xmlns="http://www.w3.org/2000/svg">
<path d="M9.48503 3.83099H4.23503C4.09579 3.83099 3.96225 3.88664 3.8638 3.98569C3.76534 4.08474 3.71003 4.21908 3.71003 4.35916C3.71003 4.49924 3.76534 4.63358 3.8638 4.73263C3.96225 4.83168 4.09579 4.88733 4.23503 4.88733H9.48503C9.62427 4.88733 9.7578 4.83168 9.85626 4.73263C9.95472 4.63358 10.01 4.49924 10.01 4.35916C10.01 4.21908 9.95472 4.08474 9.85626 3.98569C9.7578 3.88664 9.62427 3.83099 9.48503 3.83099Z" fill="#004990"/>
<path d="M9.48503 6.29578H4.23503C4.09579 6.29578 3.96225 6.35142 3.8638 6.45047C3.76534 6.54952 3.71003 6.68387 3.71003 6.82395C3.71003 6.96402 3.76534 7.09837 3.8638 7.19742C3.96225 7.29647 4.09579 7.35211 4.23503 7.35211H9.48503C9.62427 7.35211 9.7578 7.29647 9.85626 7.19742C9.95472 7.09837 10.01 6.96402 10.01 6.82395C10.01 6.68387 9.95472 6.54952 9.85626 6.45047C9.7578 6.35142 9.62427 6.29578 9.48503 6.29578Z" fill="#004990"/>
<path d="M14.0001 2.28873C14.0001 1.68172 13.7604 1.09957 13.3337 0.670354C12.9071 0.241134 12.3284 0 11.7251 0H2.27507C1.6717 0 1.09305 0.241134 0.666401 0.670354C0.239755 1.09957 6.86646e-05 1.68172 6.86646e-05 2.28873V8.62675C6.86646e-05 9.23376 0.239755 9.81591 0.666401 10.2451C1.09305 10.6744 1.6717 10.9155 2.27507 10.9155H5.55982L8.43857 13.7694C8.5821 13.9152 8.77708 13.9981 8.98107 14C9.09081 14.0006 9.19901 13.974 9.29607 13.9225C9.40952 13.8629 9.50197 13.7696 9.56084 13.6552C9.6197 13.5409 9.64213 13.4111 9.62507 13.2834L9.56382 10.9155H11.7251C12.3284 10.9155 12.9071 10.6744 13.3337 10.2451C13.7604 9.81591 14.0001 9.23376 14.0001 8.62675V2.28873ZM12.9501 8.62675C12.9501 8.9536 12.821 9.26707 12.5913 9.49819C12.3615 9.72931 12.05 9.85915 11.7251 9.85915H9.01957C8.94943 9.85912 8.88 9.87324 8.81537 9.90066C8.75075 9.92807 8.69224 9.96824 8.6433 10.0188C8.59436 10.0693 8.55599 10.1292 8.53044 10.195C8.5049 10.2607 8.4927 10.3309 8.49457 10.4014L8.54707 12.3944L6.14432 10.0106C6.04582 9.9132 5.91315 9.8588 5.77507 9.85915H2.27507C1.95018 9.85915 1.63859 9.72931 1.40886 9.49819C1.17913 9.26707 1.05007 8.9536 1.05007 8.62675V2.28873C1.05007 1.96188 1.17913 1.64842 1.40886 1.4173C1.63859 1.18618 1.95018 1.05634 2.27507 1.05634H11.7251C12.05 1.05634 12.3615 1.18618 12.5913 1.4173C12.821 1.64842 12.9501 1.96188 12.9501 2.28873V8.62675Z" fill="#004990"/>
</svg>
