<svg width="53" height="53" viewBox="0 0 53 53" fill="none" xmlns="http://www.w3.org/2000/svg">
<!-- <g filter="url(#filter0_d)"> -->
<path fill-rule="evenodd" clip-rule="evenodd" d="M29.792 19.6423L31.0747 19.641C32.1379 19.6391 33.0003 20.4964 33.0003 21.5583V29.9135C33.0003 30.9741 32.1386 31.834 31.0792 31.834H22.0881C21.0268 31.834 20.167 30.9658 20.167 29.9135V21.5622C20.167 20.5021 21.0262 19.6423 22.0926 19.6423H23.3715L23.3753 20.9256H24.6587V19.6481C24.6587 19.2907 24.9436 19.0006 25.3003 19.0006C25.6545 19.0006 25.942 19.2849 25.942 19.6481V20.9192C25.942 20.9211 27.2253 20.925 27.2253 20.925V19.6474C27.2253 19.29 27.5102 19 27.867 19C28.2212 19 28.5087 19.2843 28.5087 19.6474V20.9186C28.5087 20.9205 31.0753 20.9237 31.0753 20.9237C31.4295 20.9244 31.717 21.2086 31.717 21.5654V22.8494H21.4503V21.5654C21.4503 21.2112 21.7352 20.9244 22.092 20.9244H24.6587C24.6619 21.285 24.9481 21.566 25.3003 21.566C25.6552 21.566 25.9388 21.2792 25.942 20.9244H27.2253C27.2285 21.285 27.5147 21.566 27.867 21.566C28.2218 21.566 28.5055 21.2792 28.5087 20.9244H29.792V19.641V19.6423ZM31.0747 30.5506H22.0926C21.7378 30.5282 21.4503 30.2369 21.4503 29.8916V24.134H31.717V29.8916C31.717 30.2433 31.4315 30.5282 31.0747 30.5506ZM23.3753 25.4173H24.6587V26.7006H23.3753V25.4173ZM23.3753 27.984H24.6587V29.2673H23.3753V27.984ZM25.942 27.984H27.2253V29.2673H25.942V27.984ZM28.5087 27.984H29.792V29.2673H28.5087V27.984ZM28.5087 25.4173H29.792V26.7006H28.5087V25.4173ZM25.942 25.4173H27.2253V26.7006H25.942V25.4173Z" fill="#004990"/>
<!-- </g>
<defs>
<filter id="filter0_d" x="0.166992" y="0" width="52.8333" height="52.834" filterUnits="userSpaceOnUse" color-interpolation-filters="sRGB">
<feFlood flood-opacity="0" result="BackgroundImageFix"/>
<feColorMatrix in="SourceAlpha" type="matrix" values="0 0 0 0 0 0 0 0 0 0 0 0 0 0 0 0 0 0 127 0"/>
<feOffset dy="1"/>
<feGaussianBlur stdDeviation="10"/>
<feColorMatrix type="matrix" values="0 0 0 0 0 0 0 0 0 0 0 0 0 0 0 0 0 0 0.1 0"/>
<feBlend mode="normal" in2="BackgroundImageFix" result="effect1_dropShadow"/>
<feBlend mode="normal" in="SourceGraphic" in2="effect1_dropShadow" result="shape"/>
</filter>
</defs> -->
</svg>


