<svg width="14" height="14" viewBox="0 0 14 14" fill="none" xmlns="http://www.w3.org/2000/svg">
<path d="M7.00024 1.16667C10.2167 1.16667 12.8336 3.7835 12.8336 7C12.8336 10.2165 10.2167 12.8333 7.00024 12.8333C3.78374 12.8333 1.16691 10.2165 1.16691 7C1.16691 3.7835 3.78374 1.16667 7.00024 1.16667ZM7.00024 0C3.13449 0 0.000244141 3.13425 0.000244141 7C0.000244141 10.8657 3.13449 14 7.00024 14C10.866 14 14.0002 10.8657 14.0002 7C14.0002 3.13425 10.866 0 7.00024 0ZM7.58358 7V3.5H6.41691V8.16667H10.5002V7H7.58358Z" fill="#004990"/>
</svg>
