<svg width="16" height="14" viewBox="0 0 16 14" fill="none" xmlns="http://www.w3.org/2000/svg">
<path d="M16.0002 0H3.28082V4.61177H0.000244141V11.0118C0.0053037 11.5876 0.241999 12.1382 0.658799 12.5436C1.0756 12.949 1.63875 13.1765 2.22566 13.1765H13.3719C14.069 13.1765 14.7375 12.9048 15.2304 12.4212C15.7233 11.9375 16.0002 11.2816 16.0002 10.5976V0ZM3.28082 11.0118C3.24614 11.2647 3.1191 11.4967 2.92329 11.6647C2.72748 11.8327 2.47619 11.9253 2.21607 11.9253C1.95595 11.9253 1.70466 11.8327 1.50885 11.6647C1.31304 11.4967 1.18601 11.2647 1.15132 11.0118V5.74118H3.28082V11.0118ZM14.8492 10.5976C14.8492 10.9821 14.6935 11.3507 14.4165 11.6225C14.1395 11.8944 13.7637 12.0471 13.3719 12.0471H4.16331C4.33959 11.7294 4.43193 11.3735 4.4319 11.0118V1.12941H14.8492V10.5976Z" fill="#004990"/>
<path d="M10.1105 3.14357H5.98584V4.27298H10.1105V3.14357Z" fill="#004990"/>
<path d="M12.9691 5.7602H5.98584V6.88961H12.9691V5.7602Z" fill="#004990"/>
<path d="M12.9691 8.35754H5.98584V9.48695H12.9691V8.35754Z" fill="#004990"/>
</svg>
