<svg width="25" height="24" viewBox="0 0 25 24" fill="none" xmlns="http://www.w3.org/2000/svg">
<path d="M10.408 3.32919e-06C11.7376 3.32919e-06 13.0089 0.259946 14.222 0.779833C15.435 1.29972 16.4791 1.99716 17.3541 2.87216C18.2291 3.74716 18.9265 4.7912 19.4464 6.00427C19.9663 7.21734 20.2262 8.48864 20.2262 9.81819C20.2262 10.9602 20.0401 12.054 19.668 13.0994C19.2958 14.1449 18.766 15.0938 18.0785 15.946L24.2745 22.1335C24.4847 22.3438 24.5899 22.6023 24.5899 22.9091C24.5899 23.2216 24.4862 23.4815 24.2788 23.6889C24.0714 23.8963 23.8114 24 23.4989 24C23.1921 24 22.9336 23.8949 22.7234 23.6847L16.5359 17.4886C15.6836 18.1761 14.7347 18.706 13.6893 19.0781C12.6438 19.4503 11.5501 19.6364 10.408 19.6364C9.07848 19.6364 7.80717 19.3764 6.59411 18.8565C5.38104 18.3367 4.337 17.6392 3.462 16.7642C2.587 15.8892 1.88956 14.8452 1.36967 13.6321C0.849787 12.419 0.589844 11.1477 0.589844 9.81819C0.589844 8.48864 0.849787 7.21733 1.36967 6.00426C1.88956 4.7912 2.587 3.74716 3.462 2.87216C4.337 1.99716 5.38104 1.29971 6.59411 0.77983C7.80717 0.259943 9.07848 0 10.408 0L10.408 3.32919e-06ZM10.408 2.18182C9.37394 2.18182 8.3853 2.38353 7.44212 2.78694C6.49894 3.19034 5.68644 3.73296 5.00462 4.41477C4.32279 5.09659 3.78018 5.90909 3.37678 6.85227C2.97337 7.79545 2.77166 8.78409 2.77166 9.81818C2.77166 10.8523 2.97337 11.8409 3.37678 12.7841C3.78019 13.7273 4.3228 14.5398 5.00462 15.2216C5.68644 15.9034 6.49894 16.446 7.44212 16.8494C8.3853 17.2528 9.37393 17.4545 10.408 17.4545C11.4421 17.4545 12.4308 17.2528 13.3739 16.8494C14.3171 16.446 15.1296 15.9034 15.8114 15.2216C16.4933 14.5398 17.0359 13.7273 17.4393 12.7841C17.8427 11.8409 18.0444 10.8523 18.0444 9.81818C18.0444 8.7841 17.8427 7.79546 17.4393 6.85227C17.0359 5.90909 16.4933 5.09659 15.8114 4.41477C15.1296 3.73295 14.3171 3.19034 13.3739 2.78694C12.4308 2.38353 11.4421 2.18182 10.408 2.18182Z" fill="#5387F7"/>
</svg>
