<svg width="80" height="88" viewBox="0 0 80 88" fill="none" xmlns="http://www.w3.org/2000/svg">
<path d="M39.5233 84.5952C-1.46737 65.609 3.40088 23.2552 3.49824 3.49015L76.0352 3.58751C75.9378 23.3526 80.514 65.7064 39.5233 84.5952ZM3.40088 0.2771L0.285197 3.58751C0.285197 5.92427 0.187832 8.94259 0.187832 10.4031C-0.104263 33.6733 1.45357 69.7957 39.3286 87.3214C59.3858 78.0718 74.4774 62.1039 78.4693 37.3732C80.8061 23.0605 79.443 9.42941 79.443 0.2771L3.40088 0.2771Z" fill="#004990"/>
<path d="M24.0428 52.2701C21.1218 55.3858 18.2983 58.4041 17.3246 59.4751C17.1299 59.6699 17.0325 59.962 17.2272 60.0593C17.422 60.2541 17.7141 60.5462 17.8114 60.5462C18.0062 60.5462 18.1035 60.6435 18.3956 60.3514C18.493 60.2541 21.706 57.1384 25.5033 53.5359C25.5033 53.5359 25.1138 53.3412 24.8217 53.0491C24.4323 52.757 24.0428 52.2701 24.0428 52.2701Z" fill="#004990"/>
<path d="M25.9901 51.3938C26.769 52.0753 27.9374 52.7569 27.9374 52.7569L27.2558 53.4384C26.9637 53.7305 26.0874 53.2437 25.2112 52.4648C24.3349 51.6859 23.7507 50.8096 24.0428 50.5175L24.8217 49.8359C24.7243 49.8359 25.2112 50.7122 25.9901 51.3938Z" fill="#004990"/>
<path d="M59.0936 59.3776C59.6778 58.7934 59.6778 58.2092 59.6778 58.2092L60.3593 58.5013C60.5541 58.6961 60.3593 59.475 59.7751 60.0592C59.1909 60.6434 58.3147 60.8381 58.1199 60.6434L57.7305 59.9618C57.8278 60.0592 58.5094 60.0592 59.0936 59.3776Z" fill="#004990"/>
<path d="M58.1201 58.3066C58.5096 57.9172 58.607 57.5277 58.607 57.5277L58.9964 57.8198C59.0938 58.0145 58.9964 58.404 58.607 58.8908C58.1201 59.3777 57.5359 59.475 57.4386 59.2803L57.1465 58.7935C57.1465 58.8908 57.7307 58.6961 58.1201 58.3066Z" fill="#004990"/>
<path d="M60.1638 25.2027L59.3849 25.8842C58.3138 26.2737 55.9771 24.4237 54.0298 22.7685C52.764 21.6975 50.2325 18.8739 50.9141 17.7056L51.2062 17.4135C51.0115 17.3161 50.8167 17.1214 50.622 17.1214C50.4273 17.024 50.1352 16.9266 49.8431 16.9266C49.551 16.9266 49.2589 17.1214 49.2589 17.3161C49.1615 17.8029 49.4536 18.4845 49.9404 19.2634C50.3299 20.0423 51.8877 22.3791 55.1008 24.9106C56.5613 26.0789 58.2165 26.7605 59.3849 27.2473C59.5796 27.3447 60.3585 27.4421 60.6506 27.15C60.9427 26.8579 60.6506 26.2737 60.3585 25.6895C60.3585 25.5921 60.2611 25.3974 60.1638 25.2027Z" fill="#004990"/>
<path d="M27.2566 13.4213C27.2566 13.616 27.2566 13.9081 27.2566 14.2002C27.2566 14.9791 27.9381 21.3078 31.638 25.884C34.851 29.8759 44.3928 41.2677 45.9507 43.1176C47.4111 44.7728 56.7582 55.775 57.9266 57.2355C57.9266 57.3329 58.0239 57.3329 58.0239 57.4302C58.0239 57.4302 57.9266 57.7223 57.6345 57.9171C57.3424 58.1118 57.0503 58.2092 57.0503 58.2092L56.7582 57.9171C56.3687 57.4302 40.1088 41.1703 38.5509 39.7098C36.9931 38.152 28.6197 30.0707 25.2119 27.9286C22.1936 25.9813 20.8305 24.9103 17.6174 24.7156C17.6174 24.7156 15.2807 24.6182 15.0859 24.5209C15.0859 24.5209 15.0859 24.4235 15.1833 24.3261C16.6438 23.7419 19.7595 21.892 22.291 19.5553C25.7961 16.2448 26.8671 13.9081 27.0618 13.5186C27.0618 13.3239 27.2566 13.3239 27.2566 13.4213ZM29.496 27.1497C26.0882 23.8393 24.8224 23.0604 23.362 22.3788C22.583 21.9894 21.8041 21.7946 21.512 21.892C20.8305 22.1841 19.8568 22.5736 19.2726 23.1578C18.7858 23.5472 18.8832 23.7419 19.0779 23.8393C19.2726 23.9367 21.0252 24.3261 22.583 25.2024C25.3093 26.6629 30.4696 30.2654 41.6666 41.7545C47.3138 47.5964 56.2713 56.7487 56.2713 56.7487L56.4661 56.554C56.4661 56.554 43.4192 41.9492 33.2932 31.1417C31.9301 29.5839 30.6643 28.3181 29.496 27.1497Z" fill="#004990"/>
<path d="M19.4664 20.2369C18.0059 21.5027 16.156 22.671 14.5008 23.2552C13.4298 23.6447 11.9693 23.1579 13.0403 21.2106C13.3324 20.6264 13.8192 19.8475 14.4034 19.0685C16.3507 16.4397 19.8559 13.324 23.2637 11.4741C24.3347 10.8899 25.211 10.5978 25.6978 10.5978C26.5741 10.6951 26.5741 11.3767 26.4767 12.0583C26.0872 13.4214 23.6531 16.7318 19.4664 20.2369ZM20.5374 18.387C20.9269 18.0949 22.29 16.7318 23.361 15.3687C24.5294 13.9082 25.211 12.7398 25.211 12.7398C25.211 12.7398 25.4057 12.3503 25.4057 12.0583C25.4057 11.8635 25.1136 11.7662 25.1136 11.6688C25.0162 11.5714 22.0953 12.8372 20.7322 14.1029C20.5374 14.2003 20.3427 14.8818 20.148 15.2713C20.0506 15.6608 21.0243 16.6344 20.3427 18.2896C20.2453 18.387 20.4401 18.387 20.5374 18.387Z" fill="#004990"/>
<path d="M38.2575 40.5863C37.576 41.2679 27.0605 51.3938 27.0605 51.3938C27.2553 51.5886 27.6447 51.8807 27.6447 51.8807C27.6447 51.8807 37.2839 42.5336 38.0628 41.852C38.2575 41.6573 38.647 41.2679 38.8417 41.1705L38.2575 40.5863Z" fill="#004990"/>
<path d="M58.2176 28.1236C58.4123 28.1236 58.5097 28.1236 58.7044 28.1236C58.8991 28.1236 59.0939 28.1236 59.0939 28.0263C59.1912 27.9289 59.2886 27.8315 59.0939 27.8315C58.607 27.8315 57.7307 27.5394 56.6597 27.0526C56.0755 27.2473 55.0045 27.5394 53.8361 28.0263C52.2783 28.7078 48.9679 30.6551 42.1523 36.9838L42.6392 37.568C44.9759 35.426 48.189 32.6024 49.8442 31.5314C52.8625 29.5841 55.1019 28.6105 56.5624 28.3184C57.0492 28.221 57.6334 28.1236 58.2176 28.1236Z" fill="#004990"/>
<path d="M51.4986 23.1579C49.6486 21.2106 49.0644 19.8475 48.7723 18.7764V18.6791H48.675V18.7764C48.4802 20.8211 48.675 21.6 47.7987 23.6447C47.1171 25.3973 45.8514 27.5393 44.0988 29.584C43.1252 30.7523 41.47 32.6023 39.9121 34.4522L40.9831 35.718C41.0805 35.6206 41.47 35.2311 41.8594 34.8417C47.0198 29.2919 51.5959 25.7867 53.2511 24.6183C52.5696 24.2289 51.9854 23.6447 51.4986 23.1579Z" fill="#004990"/>
<path d="M36.1153 38.6389C33.8759 41.073 31.7339 43.6045 31.0523 44.2861C30.4682 44.8703 25.6973 50.0306 25.6973 50.0306C25.6973 50.0306 25.7946 50.2254 25.9894 50.4201C26.1841 50.6148 26.3788 50.8095 26.3788 50.8095C26.3788 50.8095 36.5048 40.4889 37.1863 39.6126L36.1153 38.6389Z" fill="#004990"/>
<path d="M53.3493 16.3423C53.3493 16.2449 53.3493 16.1476 53.3493 16.1476C52.8625 16.0502 52.3756 16.0502 52.1809 16.2449C51.4994 16.9265 52.9598 19.3606 55.4913 21.6974C57.9254 23.9368 60.4569 25.2999 61.1385 24.521C61.4306 24.2289 61.3332 23.6447 60.9438 22.9631C57.4386 23.3526 53.3493 18.5817 53.3493 16.3423Z" fill="#004990"/>
<path d="M64.4489 17.2186C64.0595 17.6081 63.4753 18.5817 63.1832 18.8738C63.5726 18.5817 63.7674 17.7054 63.3779 15.5634C63.0858 14.0055 62.8911 13.5187 62.6964 13.0319C62.599 12.7398 62.4043 12.8372 62.2095 13.0319C62.0148 13.2266 61.528 14.0055 61.528 14.1029C61.528 14.2976 61.528 14.1029 60.8464 11.9609C60.3596 10.5978 60.1649 9.62412 60.2622 9.1373C60.2622 8.8452 60.2622 8.65047 60.2622 8.45574C60.2622 8.26101 60.1649 8.26101 59.7754 8.45574C59.5807 8.5531 57.6334 9.91622 56.8545 11.8635C56.3676 13.0319 56.3676 13.9082 56.2703 13.4214C56.1729 12.253 56.1729 12.3503 56.0755 12.3503C55.4913 12.5451 53.252 13.5187 53.252 16.537C53.252 19.0685 57.9255 24.3262 61.8201 23.1579C61.8201 23.1579 64.741 22.5737 64.741 19.9448C64.741 17.1212 64.4489 17.2186 64.4489 17.2186ZM63.4753 20.529C63.3779 20.8211 62.7937 21.5027 62.0148 21.7948C61.1385 22.1842 59.8728 22.2816 59.2886 22.0868C56.465 21.2106 54.7124 18.2896 54.7124 18.2896C52.473 14.6871 55.4913 13.1293 55.6861 13.1293C55.6861 13.1293 55.394 14.2976 55.5887 15.0766C55.7834 15.7581 56.1729 16.3423 56.3676 16.7318C56.6597 17.5107 56.2703 18.0949 56.0755 18.2896C55.9782 18.387 56.2703 18.387 56.2703 18.2896C56.2703 18.2896 56.3676 18.1922 56.465 18.1922C56.8545 17.9001 57.2439 17.4133 57.1466 16.9265C56.8545 15.8555 56.0755 15.0766 57.0492 12.8372C57.6334 11.4741 58.9965 10.0136 59.0939 10.0136C59.2886 9.91622 59.4833 9.72149 59.4833 9.81885C59.4833 10.0136 59.7754 10.9872 59.8728 11.6688C59.9701 12.3503 60.7491 13.7135 60.6517 15.5634C60.457 17.4133 57.4386 19.5554 56.9518 19.6527C56.8545 19.6527 56.5624 19.8475 56.5624 19.8475C56.465 19.9448 56.6597 19.9448 56.6597 19.9448C56.8545 19.9448 58.1202 19.6527 59.1912 18.9712C60.0675 18.387 60.9438 17.4133 61.2359 16.8291C61.8201 15.8555 62.0148 14.395 62.1122 14.2976C62.2095 14.1029 62.3069 14.1029 62.3069 14.2003C62.3069 14.2976 62.599 15.1739 62.599 15.5634C62.599 15.7581 62.7937 16.4397 62.7937 17.2186C62.7937 18.6791 62.4043 19.2633 61.528 19.9448C61.0412 20.3343 60.5543 20.4316 59.9701 20.529H59.7754C59.678 20.529 59.5807 20.529 59.7754 20.6264C59.7754 20.6264 59.8728 20.6264 59.9701 20.7237C60.457 20.9185 61.4306 20.9185 62.1122 20.529C62.4043 20.3343 62.7937 20.0422 63.2806 19.5554C63.4753 19.3606 63.7674 18.9712 63.7674 19.1659C63.7674 19.3606 63.7674 19.9448 63.4753 20.529Z" fill="#004990"/>
</svg>

